# xmcd
#
# Track frame offsets:
#	150
#	60071
#	95692
#	199313
#
# Disc length: 3393 seconds
#
# Revision: 1
# Processed by: cddbd v1.5.2PL0 Copyright (c) Steve Scherf et al.
# Submitted via: audiograbber 1.83.01
#
DISCID=2d0d3f04
DTITLE=Grateful Dead - 73-06-29 Universal Amphitheatre, Universal City CA
DYEAR=1900
DGENRE=
TTITLE0=He's Gone
TTITLE1=Truckin'
TTITLE2=The Other One
TTITLE3=Morning Dew
EXTD=
EXTT0=
EXTT1=
EXTT2=
EXTT3=
PLAYORDER=
